<svg id="2ac16c13-6baf-4a17-a72b-5738885804b4" data-name="Calque 1" xmlns="http://www.w3.org/2000/svg" viewBox="0 0 314.41 58.83"><defs><style>.d725d610-7bc1-45f8-a8ef-3340fbd72a09{fill:#f28e00;}.\31 33fbc40-23f7-45e9-930c-07da09615891{fill:#1d1d1b;}</style></defs><title>logo_angers_loire_metropole</title><path class="d725d610-7bc1-45f8-a8ef-3340fbd72a09" d="M197.27,172.51a28.89,28.89,0,0,1-29.21,28.89c-15.61,0-28.48-13.34-28.48-28.89,0-15.37,12.95-28.8,28.48-28.8A28.87,28.87,0,0,1,197.27,172.51Zm-21.36-.13a7.06,7.06,0,0,0-7.37-7.31,7.31,7.31,0,0,0-7.54,7.6,7.09,7.09,0,0,0,7.31,7.39A7.39,7.39,0,0,0,175.91,172.38Z" transform="translate(-139.58 -143.71)"/><path class="133fbc40-23f7-45e9-930c-07da09615891" d="M210.46,166.21h-.05c-.52.87-1.4,1.27-3.12,1.27-2.82,0-4.47-1.67-4.47-3.87,0-2,1.4-3.75,4.12-3.75h3.52v-1.32c0-1.21-.77-1.63-2.6-1.63-1.32,0-1.94.25-2.39,1l-2-1.52a4.78,4.78,0,0,1,4.27-1.85c3.12,0,5.27,1.05,5.27,4.17v8.65h-2.55Zm0-4.25h-3.05c-1.49,0-2.19.6-2.19,1.52s.67,1.6,2.39,1.6c2.13,0,2.85-.22,2.85-2.2Z" transform="translate(-139.58 -143.71)"/><path class="133fbc40-23f7-45e9-930c-07da09615891" d="M217,154.66h2.55V156h.05a4.06,4.06,0,0,1,3.3-1.5,4.25,4.25,0,0,1,4.22,4.4v8.42h-2.55v-7.55a2.52,2.52,0,1,0-5,0v7.55H217Z" transform="translate(-139.58 -143.71)"/><path class="133fbc40-23f7-45e9-930c-07da09615891" d="M238.25,166a4.45,4.45,0,0,1-3.27,1.48,4.24,4.24,0,0,1-3.35-1.55c-.73-1-.95-1.42-.95-4.92s.22-4,.95-4.95a4.24,4.24,0,0,1,3.35-1.55,4.29,4.29,0,0,1,3.27,1.5v-1.35h2.55V167a5.18,5.18,0,0,1-5.5,5.57,6.11,6.11,0,0,1-4.4-2.12l2-1.58a3.59,3.59,0,0,0,2.47,1.16,2.63,2.63,0,0,0,2.9-2.76Zm-4.52-2a2.57,2.57,0,0,0,4,0c.45-.58.5-.93.5-3s-.05-2.4-.5-3a2.57,2.57,0,0,0-4,0c-.45.58-.5.93-.5,3S233.28,163.38,233.73,164Z" transform="translate(-139.58 -143.71)"/><path class="133fbc40-23f7-45e9-930c-07da09615891" d="M246.72,162a2.84,2.84,0,0,0,3,3.12,4,4,0,0,0,2.77-1.22l1.85,1.57a5.84,5.84,0,0,1-4.57,2c-2.6,0-5.63-1.25-5.63-6.45,0-4.92,2.78-6.52,5.23-6.52a5.15,5.15,0,0,1,5.22,5.35V162Zm5.35-2.1c-.08-1.92-1.18-3-2.67-3s-2.63,1-2.68,3Z" transform="translate(-139.58 -143.71)"/><path class="133fbc40-23f7-45e9-930c-07da09615891" d="M258,154.66h2.55V156h0a4.06,4.06,0,0,1,3.3-1.5,4.24,4.24,0,0,1,2.65,1l-1.85,2.19a2.5,2.5,0,0,0-1.67-.62,2.41,2.41,0,0,0-2.48,2.65v7.62H258Z" transform="translate(-139.58 -143.71)"/><path class="133fbc40-23f7-45e9-930c-07da09615891" d="M268.79,163.46a5.33,5.33,0,0,0,4,1.62c1.44,0,2.5-.55,2.5-1.62,0-.9-.68-1.17-1.56-1.25l-2.24-.2c-2.1-.18-3.65-1.43-3.65-3.6,0-2.57,2.05-3.9,4.72-3.9a7.29,7.29,0,0,1,5,1.72L276,158.08a5.69,5.69,0,0,0-3.4-1.17c-1.63,0-2.17.65-2.17,1.52,0,.55.4,1.1,1.67,1.2l2.1.15a3.52,3.52,0,0,1,3.67,3.8c0,2.47-2.3,3.9-5.24,3.9a8,8,0,0,1-5.58-2.27Z" transform="translate(-139.58 -143.71)"/><path class="133fbc40-23f7-45e9-930c-07da09615891" d="M344.31,154.66h2.55V156h.05a4.06,4.06,0,0,1,3.3-1.5,4.5,4.5,0,0,1,3.57,1.65,5,5,0,0,1,4-1.65,4.25,4.25,0,0,1,4.22,4.4v8.42h-2.55v-7.55a2.52,2.52,0,1,0-5,0v7.55h-2.55v-7.55a2.52,2.52,0,1,0-5,0v7.55h-2.55Z" transform="translate(-139.58 -143.71)"/><path class="133fbc40-23f7-45e9-930c-07da09615891" d="M368.07,162a2.84,2.84,0,0,0,3,3.12,4,4,0,0,0,2.77-1.22l1.85,1.57a5.83,5.83,0,0,1-4.57,2c-2.6,0-5.63-1.25-5.63-6.45,0-4.92,2.78-6.52,5.23-6.52a5.14,5.14,0,0,1,5.22,5.35V162Zm5.35-2.1c-.07-1.92-1.17-3-2.67-3s-2.62,1-2.68,3Zm-2.3-10.47h3.35L370.92,153h-2.09Z" transform="translate(-139.58 -143.71)"/><path class="133fbc40-23f7-45e9-930c-07da09615891" d="M379.49,150.81H382v3.85h1.85v2H382V164c0,.7.28,1,.9,1h.95v2.4h-1.32a2.9,2.9,0,0,1-3.08-3.12v-7.6h-1.27v-2h1.27Z" transform="translate(-139.58 -143.71)"/><path class="133fbc40-23f7-45e9-930c-07da09615891" d="M387,154.66h2.55V156h0a4.06,4.06,0,0,1,3.3-1.5,4.24,4.24,0,0,1,2.65,1l-1.85,2.19a2.5,2.5,0,0,0-1.67-.62,2.41,2.41,0,0,0-2.48,2.65v7.62H387Z" transform="translate(-139.58 -143.71)"/><path class="133fbc40-23f7-45e9-930c-07da09615891" d="M397.71,156.13a5.38,5.38,0,0,1,7.7,0c1,1.08,1.38,2.13,1.38,4.85s-.4,3.8-1.38,4.88a5.38,5.38,0,0,1-7.7,0c-1-1.08-1.37-2.13-1.37-4.88S396.74,157.21,397.71,156.13Zm5.91,1.85a2.76,2.76,0,0,0-4.11,0c-.47.68-.62,1.18-.62,3s.15,2.35.62,3a2.76,2.76,0,0,0,4.11,0c.47-.68.62-1.18.62-3S404.09,158.66,403.62,158Z" transform="translate(-139.58 -143.71)"/><path class="133fbc40-23f7-45e9-930c-07da09615891" d="M410.16,154.66h2.55V156a4.45,4.45,0,0,1,3.27-1.48,4.12,4.12,0,0,1,3.4,1.65c.7.9.9,1.72.9,4.85s-.2,3.92-.9,4.82a4.12,4.12,0,0,1-3.4,1.65,4.66,4.66,0,0,1-3.27-1.5v6.47h-2.55Zm7.57,6.35c0-2-.13-3.95-2.52-3.95s-2.5,2.1-2.5,3.95.12,3.92,2.5,3.92S417.73,163,417.73,161Z" transform="translate(-139.58 -143.71)"/><path class="133fbc40-23f7-45e9-930c-07da09615891" d="M424.58,156.13a5.37,5.37,0,0,1,7.69,0c1,1.08,1.38,2.13,1.38,4.85s-.4,3.8-1.38,4.88a5.37,5.37,0,0,1-7.69,0c-1-1.08-1.38-2.13-1.38-4.88S423.6,157.21,424.58,156.13Zm5.9,1.85a2.61,2.61,0,0,0-2.05-.92,2.58,2.58,0,0,0-2.05.92c-.48.68-.63,1.18-.63,3s.15,2.35.63,3a2.58,2.58,0,0,0,2.05.92,2.61,2.61,0,0,0,2.05-.92c.47-.68.62-1.18.62-3S431,158.66,430.48,158Z" transform="translate(-139.58 -143.71)"/><path class="133fbc40-23f7-45e9-930c-07da09615891" d="M437,149.54h2.55v14.52c0,.57.33.87.95.87h.87v2.4h-1.12c-1.85,0-3.25-.8-3.25-3.07Z" transform="translate(-139.58 -143.71)"/><path class="133fbc40-23f7-45e9-930c-07da09615891" d="M446.09,162a2.84,2.84,0,0,0,3,3.12,4,4,0,0,0,2.77-1.22l1.85,1.57a5.83,5.83,0,0,1-4.57,2c-2.6,0-5.63-1.25-5.63-6.45,0-4.92,2.78-6.52,5.23-6.52a5.15,5.15,0,0,1,5.22,5.35V162Zm5.35-2.1c-.07-1.92-1.17-3-2.67-3s-2.63,1-2.68,3Z" transform="translate(-139.58 -143.71)"/><path class="133fbc40-23f7-45e9-930c-07da09615891" d="M300.79,154.58a6.47,6.47,0,1,0,6.46,6.47A6.47,6.47,0,0,0,300.79,154.58Zm0,10.41a3.95,3.95,0,1,1,3.94-3.94A3.95,3.95,0,0,1,300.79,165Z" transform="translate(-139.58 -143.71)"/><path class="133fbc40-23f7-45e9-930c-07da09615891" d="M315.51,154.66h2.55V156h.05a4.06,4.06,0,0,1,3.3-1.5,4.24,4.24,0,0,1,2.65,1l-1.85,2.19a2.51,2.51,0,0,0-1.68-.62,2.4,2.4,0,0,0-2.47,2.65v7.62h-2.55Z" transform="translate(-139.58 -143.71)"/><path class="133fbc40-23f7-45e9-930c-07da09615891" d="M327.41,162a2.84,2.84,0,0,0,3,3.12,4,4,0,0,0,2.77-1.22l1.85,1.57a5.84,5.84,0,0,1-4.57,2c-2.61,0-5.63-1.25-5.63-6.45,0-4.92,2.77-6.52,5.22-6.52a5.15,5.15,0,0,1,5.23,5.35V162Zm5.35-2.1c-.08-1.92-1.18-3-2.68-3s-2.62,1-2.67,3Z" transform="translate(-139.58 -143.71)"/><path class="133fbc40-23f7-45e9-930c-07da09615891" d="M292.7,164.75h-3.33V149.49h-2.6v17.78h7.65A8.94,8.94,0,0,1,292.7,164.75Z" transform="translate(-139.58 -143.71)"/><path class="133fbc40-23f7-45e9-930c-07da09615891" d="M310,154.67h2.55v12.67H310Z" transform="translate(-139.58 -143.71)"/><path class="133fbc40-23f7-45e9-930c-07da09615891" d="M313.25,151.48a2,2,0,1,1-2-2A2,2,0,0,1,313.25,151.48Z" transform="translate(-139.58 -143.71)"/><rect class="d725d610-7bc1-45f8-a8ef-3340fbd72a09" x="188.76" y="35.48" width="125.63" height="2.51"/><rect class="133fbc40-23f7-45e9-930c-07da09615891" x="63.24" y="35.48" width="125.57" height="2.51"/><path class="133fbc40-23f7-45e9-930c-07da09615891" d="M208.16,202.36a11.74,11.74,0,0,1-2,.18c-2.23,0-3.49-1.58-3.49-4v-1.28c0-2.41,1.24-4,3.49-4a11.83,11.83,0,0,1,2,.18c.27,0,.33.13.33.36v.59a.25.25,0,0,1-.28.25h-.06a16.35,16.35,0,0,0-2-.12c-1.31,0-2.05.87-2.05,2.73v1.28c0,1.84.72,2.73,2.05,2.73a16.35,16.35,0,0,0,2-.12h.06a.25.25,0,0,1,.28.25V202C208.49,202.21,208.43,202.31,208.16,202.36Z" transform="translate(-139.58 -143.71)"/><path class="133fbc40-23f7-45e9-930c-07da09615891" d="M219.05,202.54c-2.41,0-3.64-1.59-3.64-4v-1.24c0-2.42,1.23-4,3.64-4s3.67,1.59,3.67,4v1.24C222.72,201,221.47,202.54,219.05,202.54Zm2.22-5.25c0-1.68-.67-2.75-2.22-2.75s-2.2,1.06-2.2,2.75v1.24c0,1.68.66,2.75,2.2,2.75s2.22-1.05,2.22-2.75Z" transform="translate(-139.58 -143.71)"/><path class="133fbc40-23f7-45e9-930c-07da09615891" d="M241.16,202.43h-.79a.33.33,0,0,1-.33-.33v-5.81c0-1.38-.64-1.76-1.49-1.76a5.84,5.84,0,0,0-1.92.44,4.84,4.84,0,0,1,.15,1.28v5.85a.32.32,0,0,1-.3.33h-.87a.31.31,0,0,1-.28-.33v-5.85c0-1.43-.41-1.72-1.26-1.72a4.92,4.92,0,0,0-2,.64v6.93a.31.31,0,0,1-.29.33h-.87a.3.3,0,0,1-.28-.33v-8.38a.31.31,0,0,1,.31-.32h.82a.31.31,0,0,1,.31.32V194a4.66,4.66,0,0,1,2.4-.78,2,2,0,0,1,1.64.68,6.58,6.58,0,0,1,2.73-.68c1.48,0,2.66.74,2.66,3v5.81A.33.33,0,0,1,241.16,202.43Z" transform="translate(-139.58 -143.71)"/><path class="133fbc40-23f7-45e9-930c-07da09615891" d="M260.23,202.43h-.79a.33.33,0,0,1-.33-.33v-5.81c0-1.38-.64-1.76-1.49-1.76a5.84,5.84,0,0,0-1.92.44,5.33,5.33,0,0,1,.14,1.28v5.85a.31.31,0,0,1-.29.33h-.87a.3.3,0,0,1-.28-.33v-5.85c0-1.43-.41-1.72-1.26-1.72a4.88,4.88,0,0,0-2,.64v6.93a.31.31,0,0,1-.29.33H250a.3.3,0,0,1-.28-.33v-8.38a.31.31,0,0,1,.31-.32h.82a.31.31,0,0,1,.31.32V194a4.66,4.66,0,0,1,2.4-.78,2,2,0,0,1,1.64.68,6.54,6.54,0,0,1,2.73-.68c1.47,0,2.66.74,2.66,3v5.81A.33.33,0,0,1,260.23,202.43Z" transform="translate(-139.58 -143.71)"/><path class="133fbc40-23f7-45e9-930c-07da09615891" d="M275.36,202.43h-.82a.32.32,0,0,1-.32-.33v-.31a5,5,0,0,1-2.61.75c-2,0-2.85-1.23-2.85-3.41v-5.41a.32.32,0,0,1,.32-.32h.79a.32.32,0,0,1,.33.32v5.41c0,1.65.56,2.16,1.81,2.16a5.12,5.12,0,0,0,2.21-.64v-6.93a.34.34,0,0,1,.33-.32h.81a.32.32,0,0,1,.31.32v8.38A.32.32,0,0,1,275.36,202.43Z" transform="translate(-139.58 -143.71)"/><path class="133fbc40-23f7-45e9-930c-07da09615891" d="M290.45,202.43h-.79a.33.33,0,0,1-.33-.33v-5.4c0-1.66-.56-2.17-1.8-2.17a5.2,5.2,0,0,0-2.22.64v6.93a.35.35,0,0,1-.33.33h-.8a.32.32,0,0,1-.31-.33v-8.38a.31.31,0,0,1,.31-.32H285a.31.31,0,0,1,.31.32V194a4.93,4.93,0,0,1,2.61-.76c2,0,2.86,1.23,2.86,3.42v5.4A.33.33,0,0,1,290.45,202.43Z" transform="translate(-139.58 -143.71)"/><path class="133fbc40-23f7-45e9-930c-07da09615891" d="M304.94,202.43h-.76a.33.33,0,0,1-.33-.33v-.36a5,5,0,0,1-2.53.8,2.39,2.39,0,0,1-2.67-2.66v-.2c0-1.77,1-2.66,4-2.66h1.22v-.65c0-1.38-.48-1.86-1.76-1.86-1.06,0-1.85.07-2.51.13h-.08c-.15,0-.3,0-.3-.26v-.57c0-.18.12-.28.35-.32a14.63,14.63,0,0,1,2.54-.21c2.28,0,3.2,1.15,3.2,3.09v5.73A.32.32,0,0,1,304.94,202.43Zm-1.12-4.37H302.6c-2,0-2.51.44-2.51,1.61v.19c0,1.19.56,1.5,1.51,1.5a4.5,4.5,0,0,0,2.22-.66Z" transform="translate(-139.58 -143.71)"/><path class="133fbc40-23f7-45e9-930c-07da09615891" d="M320.06,202.43h-.82a.32.32,0,0,1-.31-.33v-.31a5,5,0,0,1-2.61.75c-2,0-2.86-1.23-2.86-3.41v-5.41a.32.32,0,0,1,.33-.32h.79a.32.32,0,0,1,.33.32v5.41c0,1.65.55,2.16,1.8,2.16a5.2,5.2,0,0,0,2.22-.64v-6.93a.34.34,0,0,1,.33-.32h.8a.31.31,0,0,1,.31.32v8.38A.32.32,0,0,1,320.06,202.43Z" transform="translate(-139.58 -143.71)"/><path class="133fbc40-23f7-45e9-930c-07da09615891" d="M333.07,202.46a7.82,7.82,0,0,1-1.07.08c-1.51,0-2.23-.39-2.23-2.2v-5.73l-1.59-.18c-.18,0-.31-.12-.31-.3v-.44a.28.28,0,0,1,.31-.29h1.59v-1.61a.33.33,0,0,1,.3-.33l.85-.13H331a.26.26,0,0,1,.25.28v1.79H333a.32.32,0,0,1,.33.32v.56a.33.33,0,0,1-.33.33h-1.77v5.73c0,.9.23,1,.88,1H333c.23,0,.35.06.35.22v.58C333.37,202.33,333.28,202.43,333.07,202.46Z" transform="translate(-139.58 -143.71)"/><path class="133fbc40-23f7-45e9-930c-07da09615891" d="M347.51,198.37H342v.23c0,2,.77,2.68,2.28,2.68a23.33,23.33,0,0,0,2.92-.18h.08c.13,0,.27.06.27.23v.55c0,.22-.07.33-.33.38a15,15,0,0,1-2.94.28c-1.89,0-3.73-.89-3.73-3.94v-1.48c0-2.35,1.3-3.84,3.65-3.84s3.61,1.51,3.61,3.84V198A.32.32,0,0,1,347.51,198.37Zm-1.15-1.25c0-1.85-.71-2.58-2.15-2.58s-2.2.81-2.2,2.58v.15h4.35Zm.44-7.24L345,192c-.15.17-.2.25-.38.25h-.89c-.1,0-.15,0-.15-.12a.23.23,0,0,1,.07-.16l1.61-2c.15-.18.2-.24.39-.24h1.09c.11,0,.18,0,.18.11A.21.21,0,0,1,346.8,189.88Z" transform="translate(-139.58 -143.71)"/><path class="133fbc40-23f7-45e9-930c-07da09615891" d="M372.37,202.43h-.82a.32.32,0,0,1-.31-.33v-.31a5,5,0,0,1-2.61.75c-2,0-2.86-1.23-2.86-3.41v-5.41a.32.32,0,0,1,.33-.32h.79a.32.32,0,0,1,.33.32v5.41c0,1.65.56,2.16,1.8,2.16a5.2,5.2,0,0,0,2.22-.64v-6.93a.34.34,0,0,1,.33-.32h.8a.31.31,0,0,1,.31.32v8.38A.32.32,0,0,1,372.37,202.43Z" transform="translate(-139.58 -143.71)"/><path class="133fbc40-23f7-45e9-930c-07da09615891" d="M384.59,194.53a4.22,4.22,0,0,0-2.26.69v6.88a.35.35,0,0,1-.33.33h-.8a.33.33,0,0,1-.32-.33v-8.38a.31.31,0,0,1,.32-.32H382a.31.31,0,0,1,.31.32v.35a3.87,3.87,0,0,1,2.31-.79c.23,0,.35.1.35.3v.67C384.94,194.43,384.82,194.53,384.59,194.53Z" transform="translate(-139.58 -143.71)"/><path class="133fbc40-23f7-45e9-930c-07da09615891" d="M395.83,202.54a15.65,15.65,0,0,1-3-.28c-.3,0-.35-.15-.35-.38V190.39a.3.3,0,0,1,.3-.31h.83a.31.31,0,0,1,.32.31v3.05a12.11,12.11,0,0,1,1.92-.16c2.38,0,3.58,1.45,3.58,4v1.19C399.41,201,398.29,202.54,395.83,202.54ZM398,197.3c0-1.75-.52-2.76-2.13-2.76a12.61,12.61,0,0,0-1.92.12v6.52c.55,0,1.36.1,1.92.1,1.62,0,2.13-1,2.13-2.79Z" transform="translate(-139.58 -143.71)"/><path class="133fbc40-23f7-45e9-930c-07da09615891" d="M413.27,202.43h-.76a.32.32,0,0,1-.32-.33v-.36a5,5,0,0,1-2.53.8,2.39,2.39,0,0,1-2.68-2.66v-.2c0-1.77,1-2.66,4-2.66h1.21v-.65c0-1.38-.47-1.86-1.75-1.86-1.07,0-1.86.07-2.52.13h-.08c-.15,0-.29,0-.29-.26v-.57c0-.18.11-.28.34-.32a14.67,14.67,0,0,1,2.55-.21c2.28,0,3.2,1.15,3.2,3.09v5.73A.33.33,0,0,1,413.27,202.43Zm-1.12-4.37h-1.21c-2,0-2.51.44-2.51,1.61v.19c0,1.19.55,1.5,1.51,1.5a4.46,4.46,0,0,0,2.21-.66Z" transform="translate(-139.58 -143.71)"/><path class="133fbc40-23f7-45e9-930c-07da09615891" d="M423.13,192h-.84a.33.33,0,0,1-.33-.33v-1.31a.33.33,0,0,1,.33-.33h.84a.32.32,0,0,1,.32.33v1.31A.32.32,0,0,1,423.13,192Zm0,10.48h-.79a.32.32,0,0,1-.32-.33v-8.38a.32.32,0,0,1,.32-.32h.79a.32.32,0,0,1,.33.32v8.38A.33.33,0,0,1,423.09,202.43Z" transform="translate(-139.58 -143.71)"/><path class="133fbc40-23f7-45e9-930c-07da09615891" d="M438.4,202.43h-.79a.33.33,0,0,1-.33-.33v-5.4c0-1.66-.56-2.17-1.8-2.17a5.16,5.16,0,0,0-2.22.64v6.93a.35.35,0,0,1-.33.33h-.8a.33.33,0,0,1-.32-.33v-8.38a.32.32,0,0,1,.32-.32H433a.31.31,0,0,1,.31.32V194a4.93,4.93,0,0,1,2.61-.76c2,0,2.86,1.23,2.86,3.42v5.4A.33.33,0,0,1,438.4,202.43Z" transform="translate(-139.58 -143.71)"/><path class="133fbc40-23f7-45e9-930c-07da09615891" d="M453.57,198.37h-5.5v.23c0,2,.77,2.68,2.29,2.68a23.46,23.46,0,0,0,2.92-.18h.08c.13,0,.26.06.26.23v.55c0,.22-.06.33-.33.38a14.8,14.8,0,0,1-2.93.28c-1.89,0-3.73-.89-3.73-3.94v-1.48c0-2.35,1.3-3.84,3.64-3.84s3.62,1.51,3.62,3.84V198A.32.32,0,0,1,453.57,198.37Zm-1.15-1.25c0-1.85-.7-2.58-2.15-2.58s-2.2.81-2.2,2.58v.15h4.35Z" transform="translate(-139.58 -143.71)"/></svg>